<svg
  version="1.1"
  xmlns="http://www.w3.org/2000/svg"
  width="64"
  height="64"
  viewBox="0 0 64 64"
>
  <!-- 脸部轮廓（稍微更窄一些） -->
  <path
    fill="#FCCD9E"
    d="
      M18,14
      C14,22, 14,40, 32,50
      C50,40, 50,22, 46,14
      Z
    "
  />

  <!-- 头发（形状稍作变化） -->
  <path
    fill="#8B5A2B"
    d="
      M18,14
      C22,6, 42,6, 46,14
      C49,18, 48,22, 45,26
      C38,21, 26,21, 19,26
      C16,22, 15,18, 18,14
      Z
    "
  />

  <!-- 眼睛（闭眼弧线） -->
  <path
    fill="none"
    stroke="#000"
    stroke-width="2"
    d="M22 32 Q26 30, 30 32"
  />
  <path
    fill="none"
    stroke="#000"
    stroke-width="2"
    d="M34 32 Q38 30, 42 32"
  />

  <!-- 小胡子 -->
  <path
    fill="none"
    stroke="#8B5A2B"
    stroke-width="3"
    d="M24 38 C26 40, 38 40, 40 38"
  />

  <!-- 嘴巴（露齿微笑） -->
  <path
    fill="#fff"
    d="
      M26 42
      C28 45, 36 45, 38 42
      C36 39, 28 39, 26 42
      Z
    "
  />

  <!-- 衣领（换个颜色） -->
  <path
    fill="#4A6E8B"
    d="
      M20 50
      C22 48, 42 48, 44 50
      L44 54
      C42 56, 22 56, 20 54
      Z
    "
  />

  <!-- 围巾（换个颜色） -->
  <path
    fill="#AA1111"
    d="
      M28 50
      L28 58
      L36 58
      L36 50
      Z
    "
  />
</svg>
