<svg
  version="1.1"
  xmlns="http://www.w3.org/2000/svg"
  width="64"
  height="64"
  viewBox="0 0 64 64"
>
  <!-- Face background -->
  <circle cx="32" cy="32" r="28" fill="#FCCD9E" />

  <!-- Hair (shorter, parted to the right) -->
  <path
    fill="#9B6C30"
    d="M12 12 C16 4, 36 4, 46 10
       C50 12, 52 16, 52 20
       C46 16, 20 16, 14 20
       C12 16, 11 14, 12 12 Z"
  />

  <!-- Closed eyes (simple arcs) -->
  <path
    fill="none"
    stroke="#000"
    stroke-width="2"
    d="M20 30 Q24 28, 28 30"
  />
  <path
    fill="none"
    stroke="#000"
    stroke-width="2"
    d="M36 30 Q40 28, 44 30"
  />

  <!-- Mustache (simple line style) -->
  <path
    fill="none"
    stroke="#9B6C30"
    stroke-width="3"
    d="M24 38 C26 40, 38 40, 40 38"
  />

  <!-- Mouth (wide smile) -->
  <path
    fill="#fff"
    d="M26 42 C28 45, 36 45, 38 42
       C36 39, 28 39, 26 42 Z"
  />
</svg>
